<?xml version="1.0" standalone="no"?>
<!DOCTYPE svg PUBLIC "-//W3C//DTD SVG 20010904//EN"
 "http://www.w3.org/TR/2001/REC-SVG-20010904/DTD/svg10.dtd">
<svg version="1.0" xmlns="http://www.w3.org/2000/svg"
 width="500.000000pt" height="483.000000pt" viewBox="0 0 500.000000 483.000000"
 preserveAspectRatio="xMidYMid meet">

<g transform="translate(0.000000,483.000000) scale(0.100000,-0.100000)"
fill="#cc0001" stroke="none">
<path d="M2302 4489 c-361 -30 -724 -168 -1022 -388 -91 -68 -281 -250 -360
-346 -139 -170 -278 -423 -345 -629 -205 -629 -93 -1298 306 -1831 69 -92 251
-280 349 -358 192 -155 452 -288 699 -358 181 -51 333 -71 536 -72 337 0 619
67 913 217 199 102 348 213 514 382 170 174 260 301 368 519 196 399 253 835
165 1272 -62 306 -210 621 -405 858 -79 96 -269 278 -360 346 -306 227 -659
358 -1044 389 -142 11 -165 11 -314 -1z m-422 -1158 c0 -5 3 -16 6 -25 5 -13
-1 -16 -34 -16 -27 0 -42 5 -46 16 -11 29 -6 34 34 34 22 0 40 -4 40 -9z m349
-52 c25 -9 31 -16 31 -40 0 -34 2 -33 -44 -14 -28 12 -36 21 -36 40 0 28 4 29
49 14z m-693 -36 c20 -27 17 -41 -14 -57 -27 -14 -29 -14 -46 14 -16 29 -16
29 11 44 35 19 33 19 49 -1z m504 1 c153 -29 307 -95 466 -202 127 -86 198
-151 184 -167 -9 -11 -26 -4 -88 36 -160 105 -283 149 -432 156 -181 9 -316
-41 -436 -161 -124 -125 -176 -269 -178 -496 0 -74 3 -147 7 -162 l7 -28 -320
0 -320 0 6 28 c38 175 83 298 158 436 121 221 317 416 514 508 142 67 272 83
432 52z m198 -210 c15 -4 22 -14 22 -30 0 -26 -2 -27 -49 -18 -24 5 -31 12
-31 30 0 25 14 29 58 18z m-990 -61 c8 -3 -43 -63 -53 -63 -6 0 -22 11 -35 25
l-24 25 29 30 29 30 25 -23 c14 -12 28 -23 29 -24z m756 21 c8 -31 10 -28 -32
-42 -31 -11 -33 -10 -43 15 -11 30 -11 29 21 42 39 15 47 13 54 -15z m-218
-176 c-26 -34 -28 -34 -48 0 -17 28 -16 29 9 55 l27 26 16 -27 c16 -26 16 -28
-4 -54z m479 -47 c92 -41 133 -140 104 -246 -16 -57 -43 -91 -90 -111 l-40
-18 88 -88 88 -88 -115 0 -115 0 -62 67 -62 68 -1 -67 0 -68 -80 0 -80 0 0
285 0 285 163 0 c135 0 169 -3 202 -19z m565 1 c19 -9 45 -32 57 -51 22 -33
23 -41 23 -267 l0 -234 -75 0 -75 0 0 50 0 50 -75 0 -75 0 0 -50 0 -50 -77 0
-78 0 5 238 c6 263 8 273 73 312 45 28 244 29 297 2z m320 -267 l0 -285 -85 0
-85 0 0 285 0 285 85 0 85 0 0 -285z m230 75 l0 -210 110 0 110 0 0 -75 0 -75
-195 0 -195 0 0 285 0 285 85 0 85 0 0 -210z m660 135 l0 -75 -130 0 -130 0 0
-29 0 -29 88 -4 c149 -7 192 -47 192 -179 0 -62 -4 -82 -23 -110 -39 -59 -73
-69 -239 -69 l-148 0 0 75 0 75 135 0 135 0 0 35 0 35 -83 0 c-103 0 -143 18
-174 80 -38 73 -29 165 20 219 39 42 73 50 220 51 l137 0 0 -75z m-2360 -125
c-4 -23 -10 -43 -12 -46 -3 -2 -17 5 -31 17 -29 22 -33 42 -17 84 l10 26 29
-20 c26 -19 28 -24 21 -61z m-714 34 c39 -15 42 -18 33 -40 -5 -13 -13 -35
-19 -49 -9 -24 -9 -24 -55 -9 -25 9 -45 19 -45 22 0 13 33 92 39 92 3 0 24 -7
47 -16z m691 -265 c15 -6 24 -21 31 -56 6 -26 9 -49 7 -51 -5 -5 -78 18 -86
27 -4 3 -10 28 -14 54 -7 53 -9 53 62 26z"/>
<path d="M2060 2585 l0 -65 63 0 c73 0 87 10 87 60 0 52 -24 70 -93 70 l-57 0
0 -65z"/>
<path d="M2622 2638 c-7 -7 -12 -42 -12 -85 l0 -73 75 0 75 0 0 69 c0 98 -2
101 -69 101 -31 0 -62 -5 -69 -12z"/>
</g>
</svg>
